<?xml version="1.0" encoding="UTF-8"?>
<svg version="1.1" xmlns="http://www.w3.org/2000/svg" width="900" height="500">
<path d="M0 0 C297 0 594 0 900 0 C900 165 900 330 900 500 C603 500 306 500 0 500 C0 335 0 170 0 0 Z " fill="#FEFEFE" transform="translate(0,0)"/>
<path d="M0 0 C1.02515213 0.04586243 1.02515213 0.04586243 2.0710144 0.09265137 C16.90011193 0.7889998 32.16711977 4.77258617 42.5546875 16.078125 C49.6094845 24.49543644 52.96141314 33.15632917 54 44 C54.12517754 45.2892614 54.12517754 45.2892614 54.25288391 46.60456848 C55.17797527 57.21216148 55.13876267 67.8291357 55.08081055 78.46899414 C55.06246781 81.94359677 55.06030244 85.41793185 55.06054688 88.89257812 C54.99393143 133.86060445 54.99393143 133.86060445 40.875 149.25 C33.69631417 155.54858107 25.45263462 160.82388291 15.875 162.25 C13.64777012 162.07905072 11.42471683 161.84970134 9.20703125 161.58203125 C-19.26986744 159.15795871 -37.35258942 172.93162141 -59.1647644 189.83297729 C-61.39167094 191.44277212 -63.76875796 192.83625477 -66.125 194.25 C-66.125 183.69 -66.125 173.13 -66.125 162.25 C-76.4901146 162.36795205 -76.4901146 162.36795205 -86.85473633 162.52026367 C-102.04921975 162.60700402 -113.57185447 159.50380343 -124.9375 148.9375 C-138.31394669 134.47301698 -138.92191236 116.8793855 -139.125 98.25 C-139.14014648 96.96432129 -139.15529297 95.67864258 -139.17089844 94.35400391 C-139.27173111 84.65132958 -139.23943221 74.95239057 -139.125 65.25 C-139.11243164 64.10241211 -139.09986328 62.95482422 -139.08691406 61.77246094 C-138.820236 43.83972204 -137.7795028 28.40589116 -124.80078125 14.81640625 C-112.65552178 3.20500434 -100.1908827 1.07047078 -83.9375 0.125 C-83.24147675 0.08330688 -82.54545349 0.04161377 -81.82833862 -0.00134277 C-54.61978962 -1.58116698 -27.21301927 -1.40286392 0 0 Z " fill="#FF5201" transform="translate(157.125,152.75)"/>
<path d="M0 0 C3.65002585 0.00536948 7.29992898 0.0000134 10.94995117 -0.00634766 C57.82886107 -0.02041535 57.82886107 -0.02041535 63.25268555 4.52490234 C70.61762513 12.98018215 68.73996566 25.8601257 68.72143555 36.41943359 C68.72239227 37.64391205 68.723349 38.8683905 68.72433472 40.12997437 C68.72501069 42.69976859 68.72319737 45.26956459 68.71899414 47.83935547 C68.71362835 51.7515041 68.71896383 55.66353843 68.7253418 59.57568359 C68.72468109 62.08610051 68.72340009 64.59651736 68.72143555 67.10693359 C68.72345978 68.26448151 68.72548401 69.42202942 68.72756958 70.61465454 C68.66982946 90.79510436 68.66982946 90.79510436 63.58862305 96.13037109 C56.30454648 100.86283377 48.6426652 100.72050432 40.21362305 100.75537109 C37.70571129 100.78083213 35.19786407 100.81429506 32.69018555 100.85693359 C31.59013184 100.86289551 30.49007812 100.86885742 29.35668945 100.875 C26.37573076 100.92858113 26.37573076 100.92858113 23.58862305 103.13037109 C22.59862305 103.13037109 21.60862305 103.13037109 20.58862305 103.13037109 C20.58862305 103.79037109 20.58862305 104.45037109 20.58862305 105.13037109 C18.30561748 106.70051355 16.0250948 108.14634263 13.65112305 109.56787109 C12.18150743 110.46489197 10.71278708 111.3633809 9.24487305 112.26318359 C8.47916992 112.73143555 7.7134668 113.1996875 6.92456055 113.68212891 C2.43399815 116.4662025 -1.97541468 119.37734755 -6.38574219 122.28637695 C-11.30276323 125.50026204 -16.24069761 128.25777146 -21.41137695 131.13037109 C-21.41137695 120.90037109 -21.41137695 110.67037109 -21.41137695 100.13037109 C-29.65284605 100.20913002 -29.65284605 100.20913002 -37.89404297 100.31054688 C-51.60370986 100.37650477 -51.60370986 100.37650477 -57.22387695 95.88037109 C-61.16636035 90.92410625 -61.75435809 85.67910234 -62.02856445 79.50927734 C-62.06609833 78.775121 -62.1036322 78.04096466 -62.14230347 77.28456116 C-62.52349464 69.07181521 -62.56211627 60.85710907 -62.54174805 52.63696289 C-62.53637377 50.06634652 -62.54174188 47.49590421 -62.5480957 44.92529297 C-62.5628992 13.57447995 -62.5628992 13.57447995 -58.41137695 6.13037109 C-52.1316101 0.56421411 -44.21285334 0.94618183 -36.2277832 0.57568359 C-34.87373131 0.5126152 -34.87373131 0.5126152 -33.49232483 0.44827271 C-22.33159044 -0.02026309 -11.16877803 -0.0194983 0 0 Z " fill="#FEFDFC" transform="translate(112.411376953125,183.86962890625)"/>
<path d="M0 0 C6.74162651 5.86228392 12.47327398 14.29740138 14.42578125 23.109375 C14.42578125 26.079375 14.42578125 29.049375 14.42578125 32.109375 C7.49578125 32.109375 0.56578125 32.109375 -6.57421875 32.109375 C-7.13109375 30.253125 -7.68796875 28.396875 -8.26171875 26.484375 C-10.72845748 19.11021592 -13.54598667 14.80525566 -20.57421875 11.109375 C-29.61495226 8.62165638 -39.38756772 8.01098676 -47.9609375 12.3046875 C-55.1858195 17.19250046 -57.49262692 23.91825088 -59.57421875 32.109375 C-59.92408542 36.62094459 -59.90384749 41.12720353 -59.88989258 45.65014648 C-59.88675189 47.77445777 -59.91016859 49.89734655 -59.93554688 52.02148438 C-59.9861288 62.83607312 -59.32915505 73.25807916 -52.57421875 82.109375 C-52.57421875 82.769375 -52.57421875 83.429375 -52.57421875 84.109375 C-43.6545083 88.85829492 -32.92899227 91.00447002 -23.02734375 88.453125 C-17.53208976 86.31403284 -13.54614854 83.23121145 -10.57421875 78.109375 C-8.98148923 74.1449174 -7.77539806 70.22110419 -6.57421875 66.109375 C0.68578125 66.109375 7.94578125 66.109375 15.42578125 66.109375 C14.12523965 79.114791 9.60606656 90.42771037 -0.57421875 99.109375 C-14.69106366 108.7809947 -30.03734979 111.04087504 -46.8046875 108.6484375 C-59.21143326 105.60493565 -69.91021409 98.73408625 -76.6171875 87.76953125 C-83.04167216 75.87616368 -83.92657275 64.91152402 -83.88989258 51.63330078 C-83.88673407 49.24595355 -83.91025567 46.85985104 -83.93554688 44.47265625 C-84.00534963 27.67789478 -80.75054093 13.78593163 -68.890625 1.30078125 C-50.3209332 -16.26683612 -19.70075646 -14.33896427 0 0 Z " fill="#1E1E23" transform="translate(628.57421875,183.890625)"/>
<path d="M0 0 C0.74096924 0.00161133 1.48193848 0.00322266 2.24536133 0.00488281 C8.35354917 0.14099099 13.26214396 1.35839348 18.625 4.375 C19.676875 4.9525 20.72875 5.53 21.8125 6.125 C28.8363417 11.74407336 34.16642543 18.3264365 35.625 27.375 C35.70968938 29.42934881 35.7427823 31.48614703 35.73852539 33.54223633 C35.73841209 35.37356865 35.73841209 35.37356865 35.73829651 37.24189758 C35.73313522 38.55039169 35.72797394 39.8588858 35.72265625 41.20703125 C35.72078961 42.56751961 35.71936687 43.92800865 35.71836853 45.28849792 C35.71456275 48.85755287 35.70474914 52.42656669 35.69366455 55.99560547 C35.68340863 59.64224695 35.67886197 63.28889511 35.67382812 66.93554688 C35.66312503 74.08204962 35.64554404 81.22851778 35.625 88.375 C28.365 88.375 21.105 88.375 13.625 88.375 C13.295 86.395 12.965 84.415 12.625 82.375 C11.93792969 82.79652344 11.25085938 83.21804688 10.54296875 83.65234375 C9.64191406 84.20019531 8.74085938 84.74804688 7.8125 85.3125 C6.91917969 85.85777344 6.02585937 86.40304687 5.10546875 86.96484375 C-2.78584488 91.45108662 -15.80496178 90.87116237 -24.48486328 88.89453125 C-31.17238798 86.61638343 -36.60131747 82.32058615 -40.375 76.375 C-40.74496094 75.82585937 -41.11492188 75.27671875 -41.49609375 74.7109375 C-43.98292758 68.10148581 -43.60285575 58.34411509 -41.53515625 51.66015625 C-40.32323221 49.59947733 -39.06604358 48.06192911 -37.375 46.375 C-36.79363281 45.74335938 -36.21226562 45.11171875 -35.61328125 44.4609375 C-27.37529379 36.33991944 -17.91850871 35.85543564 -6.8671875 35.79907227 C0.7945495 36.01181816 6.2409691 38.01517402 12.625 42.375 C12.73383596 39.99874823 12.81266696 37.62756024 12.875 35.25 C12.90851562 34.58484375 12.94203125 33.9196875 12.9765625 33.234375 C13.07723141 28.10026074 11.98710932 25.2288464 8.625 21.375 C3.61883117 18.55953714 -1.78843071 18.84177386 -7.375 19.375 C-10.86675371 20.6220549 -12.70858644 21.34641302 -14.72583008 24.45996094 C-16.375 26.375 -16.375 26.375 -18.64331055 26.82910156 C-19.50738525 26.8081543 -20.37145996 26.78720703 -21.26171875 26.765625 C-22.19951172 26.75273437 -23.13730469 26.73984375 -24.10351562 26.7265625 C-25.07998047 26.69304687 -26.05644531 26.65953125 -27.0625 26.625 C-28.05056641 26.60695312 -29.03863281 26.58890625 -30.05664062 26.5703125 C-32.49706842 26.52315447 -34.93554769 26.45736042 -37.375 26.375 C-33.72358325 15.71030597 -28.8117301 9.4073028 -19.09765625 3.6015625 C-12.85930644 0.79117249 -6.76058746 -0.01546868 0 0 Z " fill="#1E1E23" transform="translate(786.375,202.625)"/>
<path d="M0 0 C7.26 0 14.52 0 22 0 C22.33 14.52 22.66 29.04 23 44 C25.97 41.36 28.94 38.72 32 36 C39.83615426 31.82071773 49.13038592 31.70718835 57.6875 33.9375 C64.31370749 36.5855424 70.11517468 41.20977482 73.30699158 47.62825012 C76.89845178 56.23860956 77.67380686 63.56469235 77.48828125 72.83203125 C77.47892449 74.20349317 77.47182198 75.57497211 77.46684265 76.94645691 C77.44799675 80.50929118 77.39910023 84.07106207 77.34332275 87.63348389 C77.291637 91.28741073 77.26922483 94.94151399 77.24414062 98.59570312 C77.19095072 105.73093857 77.10320834 112.86528676 77 120 C69.74 120 62.48 120 55 120 C54.98541748 118.36530762 54.97083496 116.73061523 54.95581055 115.04638672 C54.89778522 108.97438822 54.82055153 102.9027589 54.73754883 96.83105469 C54.70431962 94.20448809 54.6762815 91.57785043 54.65356445 88.95117188 C54.61998272 85.17286939 54.56766247 81.39521695 54.51171875 77.6171875 C54.50532883 76.44509735 54.4989389 75.2730072 54.49235535 74.06539917 C54.3723774 67.3938196 53.94068785 62.57996781 49.5625 57.25 C45.44774601 53.95819681 41.75872305 53.50320965 36.60546875 53.625 C32.35998273 54.23604446 28.96217132 55.88732575 26 59 C22.4128793 65.41964387 22.52791792 71.47638886 22.48828125 78.71484375 C22.47033005 79.92572159 22.45237885 81.13659943 22.43388367 82.38417053 C22.37988872 86.2352454 22.34591851 90.08619705 22.3125 93.9375 C22.27931751 96.55535564 22.24482699 99.17319505 22.20898438 101.79101562 C22.12416791 108.19392139 22.05730436 114.59679129 22 121 C14.74 121 7.48 121 0 121 C0 81.07 0 41.14 0 0 Z " fill="#1E1E23" transform="translate(656,170)"/>
<path d="M0 0 C8.27944296 6.2395802 12.93806507 13.87726029 15.42578125 23.828125 C15.42578125 31.418125 15.42578125 39.008125 15.42578125 46.828125 C-3.05421875 46.828125 -21.53421875 46.828125 -40.57421875 46.828125 C-38.61502365 58.55569008 -38.61502365 58.55569008 -35.57421875 63.015625 C-29.81063759 66.49778862 -23.38477678 67.43110391 -16.76171875 66.265625 C-12.37151515 65.05181646 -9.7415982 63.07468894 -6.57421875 59.828125 C-6.07921875 58.343125 -6.07921875 58.343125 -5.57421875 56.828125 C1.02578125 56.828125 7.62578125 56.828125 14.42578125 56.828125 C12.95398055 65.65892918 9.76391549 70.29060183 3.04296875 75.96484375 C-4.80730586 81.5537706 -13.06804531 83.61272832 -22.57421875 83.828125 C-23.34507812 83.87839844 -24.1159375 83.92867188 -24.91015625 83.98046875 C-35.59577678 84.44913632 -44.39955781 80.30111993 -52.29296875 73.3046875 C-60.87015324 64.3336527 -62.356314 53.12160713 -62.11621094 41.26318359 C-62.07399497 39.06648054 -62.07519144 36.87282623 -62.08203125 34.67578125 C-62.04979011 27.54049889 -61.79412788 21.33879701 -58.57421875 14.828125 C-58.23261719 14.09722656 -57.89101563 13.36632812 -57.5390625 12.61328125 C-52.74979403 4.58260675 -45.84680491 -2.25770538 -36.6796875 -4.734375 C-35.98488281 -4.87875 -35.29007812 -5.023125 -34.57421875 -5.171875 C-33.79175781 -5.35363281 -33.00929688 -5.53539062 -32.203125 -5.72265625 C-20.70099828 -7.68810138 -9.82156403 -6.29313278 0 0 Z " fill="#1D1D22" transform="translate(520.57421875,209.171875)"/>
<path d="M0 0 C7.59 0 15.18 0 23 0 C23 31.68 23 63.36 23 96 C40.49 96 57.98 96 76 96 C76 101.94 76 107.88 76 114 C50.92 114 25.84 114 0 114 C0 76.38 0 38.76 0 0 Z " fill="#1B1B20" transform="translate(261,176)"/>
<path d="M0 0 C7.59 0 15.18 0 23 0 C26.37640594 9.00374918 26.37640594 9.00374918 27.62573242 13.34277344 C27.90579636 14.31027527 28.18586029 15.2777771 28.47441101 16.27459717 C28.76516006 17.29257385 29.05590912 18.31055054 29.35546875 19.359375 C29.66196854 20.42617493 29.96846832 21.49297485 30.28425598 22.59210205 C30.92711301 24.83386727 31.56825376 27.0761253 32.20776367 29.31884766 C33.18886135 32.7547676 34.17911471 36.18796287 35.16992188 39.62109375 C35.79482805 41.8045281 36.41919591 43.98811661 37.04296875 46.171875 C37.3397905 47.19794861 37.63661224 48.22402222 37.94242859 49.28118896 C38.21303604 50.23608215 38.48364349 51.19097534 38.76245117 52.17480469 C39.00211105 53.01227234 39.24177094 53.84973999 39.48869324 54.71258545 C40 57 40 57 40 61 C40.66 61 41.32 61 42 61 C42.10404144 60.41888458 42.20808289 59.83776917 42.3152771 59.23904419 C43.62091203 52.30989632 45.45972543 45.61961297 47.4765625 38.8671875 C47.80667328 37.74933868 48.13678406 36.63148987 48.47689819 35.47976685 C49.52216979 31.94361685 50.57348163 28.40929685 51.625 24.875 C52.33894308 22.46366048 53.05248873 20.05220325 53.765625 17.640625 C55.50582427 11.75904567 57.25143939 5.87909871 59 0 C66.26 0 73.52 0 81 0 C80.30592317 4.85853778 79.77088357 8.14785769 78.13671875 12.54296875 C77.55700317 14.12718628 77.55700317 14.12718628 76.96557617 15.7434082 C76.54381104 16.8799585 76.1220459 18.01650879 75.6875 19.1875 C74.77787354 21.68374262 73.87070386 24.18068047 72.96875 26.6796875 C72.61184334 27.66794273 72.61184334 27.66794273 72.24772644 28.67616272 C69.25555489 37.00790426 66.47196654 45.40955977 63.6875 53.8125 C63.43946625 54.56050873 63.1914325 55.30851746 62.93588257 56.07919312 C61.74740596 59.66492784 60.56114091 63.25138692 59.37646484 66.83837891 C57.26439697 73.23005899 55.13104562 79.61462652 53 86 C45.08 86 37.16 86 29 86 C26.96552217 81.25288506 25.17624983 76.75669771 23.57421875 71.8828125 C23.23766014 70.86492645 23.23766014 70.86492645 22.89430237 69.82647705 C22.40936179 68.35940177 21.92571314 66.89189893 21.4432373 65.42401123 C20.13423012 61.4419103 18.81578342 57.46294656 17.49609375 53.484375 C17.21827057 52.64655487 16.94044739 51.80873474 16.65420532 50.94552612 C14.50389806 44.47754626 12.3098194 38.025188 10.09765625 31.578125 C9.77580856 30.63971771 9.45396088 29.70131042 9.12236023 28.73446655 C7.54254462 24.1315267 5.95828108 19.53015701 4.36987305 14.93017578 C3.79337308 13.25295854 3.21695293 11.57571386 2.640625 9.8984375 C2.37246475 9.12614807 2.1043045 8.35385864 1.82801819 7.5581665 C0 2.22653237 0 2.22653237 0 0 Z " fill="#1F1F24" transform="translate(376,205)"/>
<path d="M0 0 C7.26 0 14.52 0 22 0 C22 7.92 22 15.84 22 24 C28.27 24 34.54 24 41 24 C41 29.94 41 35.88 41 42 C34.73 42 28.46 42 22 42 C22.0687654 48.35415082 22.15667787 54.70763655 22.26245117 61.0612793 C22.29573322 63.22331375 22.32375485 65.38543577 22.34643555 67.54760742 C22.37992108 70.65321218 22.432234 73.75801198 22.48828125 76.86328125 C22.49467117 77.83211746 22.5010611 78.80095367 22.50764465 79.79914856 C22.53733589 81.15020943 22.53733589 81.15020943 22.56762695 82.52856445 C22.58428154 83.71770195 22.58428154 83.71770195 22.60127258 84.93086243 C23.10374922 87.53839141 23.8858767 88.42634629 26 90 C30.66295218 90.71111378 35.27927076 90.78345279 40 91 C40 96.94 40 102.88 40 109 C36.3120519 109.08128539 32.6259136 109.14064175 28.9375 109.1875 C27.37999023 109.22520508 27.37999023 109.22520508 25.79101562 109.26367188 C17.34012344 109.34415656 11.2731363 108.10359208 5 102 C1.13723714 96.55051301 -0.13056145 91.52728241 -0.11352539 84.93432617 C-0.11344986 83.95368698 -0.11337433 82.97304779 -0.11329651 81.96269226 C-0.10813522 80.9166835 -0.10297394 79.87067474 -0.09765625 78.79296875 C-0.0962413 77.71243729 -0.09482635 76.63190582 -0.09336853 75.51863098 C-0.0877808 72.07489224 -0.0752305 68.63121902 -0.0625 65.1875 C-0.05748342 62.84961032 -0.05292079 60.51171961 -0.04882812 58.17382812 C-0.03781538 52.44919358 -0.02055912 46.7246079 0 41 C-3.96 41 -7.92 41 -12 41 C-12 35.06 -12 29.12 -12 23 C-8.04 23 -4.08 23 0 23 C0 15.41 0 7.82 0 0 Z " fill="#1D1D22" transform="translate(840,182)"/>
<path d="M0 0 C7.26 0 14.52 0 22 0 C22 27.72 22 55.44 22 84 C14.74 84 7.48 84 0 84 C0 56.28 0 28.56 0 0 Z " fill="#1B1B20" transform="translate(348,206)"/>
<path d="M0 0 C4.439918 2.76261564 4.439918 2.76261564 5.8125 5.75 C6.2052811 9.87420155 6.20222964 12.60679304 4.875 16.5 C0.24761509 21.54805627 -5.55429778 23.00737939 -12.25 23.3125 C-17.86923761 23.11873319 -22.11675076 21.71637106 -26.1875 17.75 C-28.55827952 14.0408772 -28.44167301 11.19400019 -27.8671875 6.94140625 C-26.68601629 3.13314735 -24.49577632 1.86729685 -21.1875 -0.25 C-14.88563087 -2.35062304 -6.24297277 -2.47033761 0 0 Z " fill="#FBFBFB" transform="translate(793.1875,255.25)"/>
<path d="M0 0 C3.53226078 2.61387298 6.1744397 5.01531261 7.875 9.125 C8.26070138 12.4998871 8.125 15.91564433 8.125 19.3125 C-3.425 19.3125 -14.975 19.3125 -26.875 19.3125 C-26.875 11.54867928 -25.92876542 6.36626542 -20.375 0.8125 C-14.47500508 -2.72749695 -6.13395878 -3.28557619 0 0 Z " fill="#FCFCFC" transform="translate(506.875,220.6875)"/>
<path d="M0 0 C4.50800038 1.12700009 6.36577388 3.23681982 9 7 C10.53597454 10.07194908 10.2265038 12.60244293 10 16 C8.27694416 20.62504462 6.35344121 23.59171337 2 26 C-2.3755861 26.86174531 -6.24836399 27.0352011 -10.16796875 24.71875 C-13.27455791 22.1053719 -15.74715508 20.0083111 -16.2734375 15.828125 C-16.58138863 8.01090393 -16.58138863 8.01090393 -13.6875 4.5 C-9.12588619 0.25663832 -6.09135679 -0.56136033 0 0 Z " fill="#202025" transform="translate(362,169)"/>
</svg>
