<svg version="1.1" xmlns="http://www.w3.org/2000/svg" width="177" height="177">

<path d="M0 0 C58.41 0 116.82 0 177 0 C177 26.73 177 53.46 177 81 C176.34 79.68 175.68 78.36 175 77 C173.37921338 73.82990528 173.37921338 73.82990528 170.8359375 73.48828125 C170.02382812 73.43027344 169.21171875 73.37226562 168.375 73.3125 C167.55773437 73.24675781 166.74046875 73.18101563 165.8984375 73.11328125 C164.95871094 73.05720703 164.95871094 73.05720703 164 73 C163.70867187 72.18917969 163.41734375 71.37835938 163.1171875 70.54296875 C158.09873312 56.98682941 152.11241679 47.15625675 142 37 C141.37609375 36.34128906 140.7521875 35.68257812 140.109375 35.00390625 C127.4132516 22.62232645 107.76715518 16.12579028 90.375 15.6875 C77.54913468 15.91251518 65.53472759 18.29798877 54 24 C53.08992188 24.41894531 52.17984375 24.83789062 51.2421875 25.26953125 C43.24029047 29.22488491 37.26210265 34.76492801 31 41 C30.34128906 41.62390625 29.68257812 42.2478125 29.00390625 42.890625 C24.8000533 47.20127329 21.9509953 52.26118938 19.0625 57.5 C18.6600708 58.21236816 18.2576416 58.92473633 17.84301758 59.65869141 C15.198559 64.66869857 14.30366228 68.33070172 15 74 C17.73417774 76.1784064 17.73417774 76.1784064 20.3984375 76.17578125 C24.67351134 74.24365328 25.72525033 70.30316945 27.625 66.1875 C35.61858899 50.02677799 48.05427215 37.84596993 65 31 C82.88624712 25.08739549 101.43401881 25.64252112 118.5625 33.8125 C123.81908444 36.70868977 128.49823782 40.03844929 133 44 C133.75023437 44.64453125 134.50046875 45.2890625 135.2734375 45.953125 C144.06939364 54.05861359 149.8291621 64.5057126 153 76 C151.88625 76.391875 150.7725 76.78375 149.625 77.1875 C146.68039334 78.42482967 146.14117455 78.73606497 144.5625 81.6875 C144.376875 82.450625 144.19125 83.21375 144 84 C143.34 84 142.68 84 142 84 C141.67 84.66 141.34 85.32 141 86 C140.75765625 85.154375 140.5153125 84.30875 140.265625 83.4375 C135.38430327 66.91610339 128.37902113 55.64880462 113 47 C100.51916577 40.49419455 84.87075117 39.52080368 71.375 43.5625 C63.35080669 46.7997282 55.72369603 51.45863311 50 58 C49.53335938 58.47566406 49.06671875 58.95132813 48.5859375 59.44140625 C38.86714042 69.78320314 35.59652687 82.25665902 35.875 96.0625 C35.88402344 96.92810547 35.89304688 97.79371094 35.90234375 98.68554688 C35.92560277 100.79048779 35.96145992 102.89528342 36 105 C35.01 105.33 34.02 105.66 33 106 C32.80921875 105.32582031 32.6184375 104.65164062 32.421875 103.95703125 C30.41779599 99.7892076 27.49210194 96.93964978 24.25 93.6875 C23.33734375 92.71973633 23.33734375 92.71973633 22.40625 91.73242188 C18.68644011 87.93946654 18.68644011 87.93946654 13.671875 86.51953125 C11.03789357 86.86361457 11.03789357 86.86361457 9 88 C8.08224869 89.82048262 8.08224869 89.82048262 7.30859375 92.04296875 C6.85129883 93.28336914 6.85129883 93.28336914 6.38476562 94.54882812 C5.91586914 95.8549707 5.91586914 95.8549707 5.4375 97.1875 C5.12103516 98.03892578 4.80457031 98.89035156 4.47851562 99.76757812 C2.87635115 104.16587677 1.55862268 108.3244047 1 113 C0.67 113 0.34 113 0 113 C0 75.71 0 38.42 0 0 Z " fill="#FDFDFD" transform="translate(0,0)" data-index="1" style="opacity: 1; visibility: hidden;"></path>
<path d="M0 0 C12.05681077 8.22609167 19.64411842 20.05297569 23.015625 34.25 C25.24878064 47.79234753 22.85812276 63.10403738 15.125 74.59765625 C14.56941406 75.335 14.01382813 76.07234375 13.44140625 76.83203125 C12.85488281 77.610625 12.26835937 78.38921875 11.6640625 79.19140625 C6.75841147 85.17048195 1.23556643 89.19584725 -5.55859375 92.83203125 C-6.47769531 93.34121094 -7.39679688 93.85039062 -8.34375 94.375 C-20.30559022 100.0013201 -36.40770389 100.23444494 -48.80859375 95.76953125 C-50.755683 94.85234974 -52.67540444 93.8741332 -54.55859375 92.83203125 C-55.9971875 92.07019531 -55.9971875 92.07019531 -57.46484375 91.29296875 C-70.42461382 83.78057456 -77.42645727 72.60896652 -82.55859375 58.83203125 C-85.57205444 42.25799744 -83.08522581 27.4169661 -73.9140625 13.30078125 C-56.70712534 -10.17310355 -24.2288875 -15.28655496 0 0 Z " fill="#94BF47" transform="translate(118.55859375,49.16796875)" data-index="2" style="visibility: visible; opacity: 1;"></path>
<path d="M0 0 C-0.7425 0.5775 -1.485 1.155 -2.25 1.75 C-7.48206798 6.03078289 -10.21506427 9.89684297 -13 16 C-12.443125 15.79503906 -11.88625 15.59007813 -11.3125 15.37890625 C-6.16382446 13.56121505 -1.43723984 12.49429453 4 12 C4.33 11.01 4.66 10.02 5 9 C5 9.66 5 10.32 5 11 C6.32 10.67 7.64 10.34 9 10 C9 9.01 9 8.02 9 7 C14.40363533 7.41566426 16.26545968 8.26545968 20 12 C22.32275177 12.40047444 24.65739357 12.7397104 27 13 C29.10693163 23.01547945 30.88175867 33.03753308 32.36254883 43.16357422 C32.69049865 45.39540706 33.02958806 47.62537512 33.36914062 49.85546875 C34.42555504 56.93730343 35.29987118 63.81930095 35 71 C31.96236013 71.71204234 28.922354 72.39437535 25.875 73.0625 C25.03839844 73.26166016 24.20179687 73.46082031 23.33984375 73.66601562 C10.17349927 76.48737516 -2.89995752 73.49739296 -15.875 70.9375 C-17.3527208 70.65224891 -18.83058503 70.36773986 -20.30859375 70.08398438 C-23.87408285 69.39783048 -27.43755152 68.70179146 -31 68 C-31.37667152 58.87871518 -30.42339408 49.98107093 -29.24829102 40.95410156 C-29.03950193 39.30543864 -28.84504174 37.65490339 -28.66430664 36.00292969 C-28.39994881 33.59069414 -28.09368341 31.18715236 -27.77734375 28.78125 C-27.6674839 27.6750531 -27.6674839 27.6750531 -27.55540466 26.54650879 C-27.25366211 24.47070312 -27.25366211 24.47070312 -26 21 C-22.456273 18.94396613 -20.0955722 18 -16 18 C-15.87625 16.7315625 -15.87625 16.7315625 -15.75 15.4375 C-13.99099098 7.37537533 -9.10995955 -1.05929762 0 0 Z " fill="#FDFDFB" transform="translate(86,54)" data-index="3" style="visibility: visible; opacity: 1;"></path>
<path d="M0 0 C3.1227937 2.22178084 5.71437831 4.87777579 8.375 7.625 C9.11105469 8.33785156 9.84710937 9.05070312 10.60546875 9.78515625 C15.82943144 15.06727066 15.82943144 15.06727066 16.6171875 19.375 C16 22 16 22 13.75 24.375 C11 26 11 26 7 26 C10.61600815 35.38244539 14.66149019 43.10894021 21 51 C21.62777344 51.8353125 22.25554688 52.670625 22.90234375 53.53125 C32.75805653 65.13052463 48.19446623 71.88492375 63 74 C81.16935299 75.36108114 98.21056182 70.63146482 113 60 C114.03125 59.278125 115.0625 58.55625 116.125 57.8125 C123.66953288 51.16456378 128.91348707 42.05790071 133 33 C135.89655172 27.10344828 135.89655172 27.10344828 137 26 C140.4375 25.8125 140.4375 25.8125 144 26 C146 28 146 28 146.4375 30.9375 C146.00148253 44.09977743 133.99460051 58.33746339 125 67 C113.19012677 77.07581148 99.960848 82.68329234 85 86 C84.19433594 86.19335938 83.38867188 86.38671875 82.55859375 86.5859375 C62.87580505 89.77124376 42.14942582 84.48750593 26 73 C24.31874569 71.68510857 22.65070858 70.35303982 21 69 C20.29617187 68.45859375 19.59234375 67.9171875 18.8671875 67.359375 C7.70931058 58.3455607 -2.22739763 43.49102434 -4 29 C-4.92232422 29.05220703 -4.92232422 29.05220703 -5.86328125 29.10546875 C-6.67152344 29.13253906 -7.47976563 29.15960938 -8.3125 29.1875 C-9.51326172 29.23970703 -9.51326172 29.23970703 -10.73828125 29.29296875 C-13 29 -13 29 -14.85546875 27.98828125 C-16.74391711 24.70766618 -15.80921005 21.51593192 -15 18 C-14.18024914 15.14863545 -13.18967357 12.39315127 -12.125 9.625 C-11.86847656 8.91472656 -11.61195312 8.20445313 -11.34765625 7.47265625 C-9.07178555 1.44560168 -6.63977875 -1.19733715 0 0 Z " fill="#202E78" transform="translate(17,86)" data-index="4" style="visibility: visible; opacity: 1;"></path>
<path d="M0 0 C2.47712253 2.28260679 4.85318182 4.64620376 7.22338867 7.0402832 C7.96459961 7.75958008 8.70581055 8.47887695 9.46948242 9.2199707 C16.65238156 16.64089963 25.22338867 29.51289093 25.22338867 40.0402832 C25.83827148 39.99387695 26.4531543 39.9474707 27.08666992 39.8996582 C33.6558681 39.60629688 33.6558681 39.60629688 36.34838867 41.6652832 C38.38149892 47.18372532 35.17716101 53.50197734 33.28588867 58.7902832 C33.02098633 59.55727539 32.75608398 60.32426758 32.4831543 61.11450195 C30.47308042 66.79059145 30.47308042 66.79059145 28.22338867 69.0402832 C25.12573242 69.6418457 25.12573242 69.6418457 21.22338867 69.0402832 C18.02880813 66.86233138 15.45214068 64.20106527 12.78588867 61.4152832 C11.68857422 60.34600586 11.68857422 60.34600586 10.5690918 59.25512695 C5.37051575 53.96432593 5.37051575 53.96432593 4.68041992 49.63012695 C5.22338867 47.0402832 5.22338867 47.0402832 6.34838867 45.2277832 C8.8696273 43.63099874 11.29816148 43.47232895 14.22338867 43.0402832 C8.16791099 29.15918505 8.16791099 29.15918505 -0.77661133 17.0402832 C-1.37989258 16.35836914 -1.98317383 15.67645508 -2.60473633 14.97387695 C-14.85114055 1.85628544 -32.2706613 -4.64461326 -50.02661133 -5.2722168 C-68.69344377 -4.87164099 -84.69131283 2.2375602 -98.15161133 14.9152832 C-104.89982135 22.08880058 -109.32419058 30.77751182 -113.51489258 39.60668945 C-114.77661133 42.0402832 -114.77661133 42.0402832 -116.77661133 44.0402832 C-122.23115678 43.58573775 -122.23115678 43.58573775 -124.77661133 41.0402832 C-125.43028246 34.54574424 -124.0935576 30.42785027 -120.96411133 24.7902832 C-120.56321289 24.05302002 -120.16231445 23.31575684 -119.74926758 22.55615234 C-115.68876741 15.39344874 -110.6730486 9.72922122 -104.77661133 4.0402832 C-104.0830957 3.31583008 -103.38958008 2.59137695 -102.67504883 1.8449707 C-92.1981691 -8.47010393 -77.97632024 -14.13356114 -63.77661133 -16.9597168 C-63.04442383 -17.10924805 -62.31223633 -17.2587793 -61.55786133 -17.4128418 C-40.46509858 -20.8091341 -16.1067472 -14.17283244 0 0 Z " fill="#202E78" transform="translate(138.776611328125,32.959716796875)" data-index="5" style="visibility: visible; opacity: 1;"></path>
<path d="M0 0 C3.5625 0.1875 3.5625 0.1875 5.5625 2.1875 C7.12294217 12.66475456 -0.60083913 23.06795161 -6.4375 31.1875 C-16.27300708 43.74267382 -29.74775908 52.90856463 -44.9375 57.875 C-48.4375 58.1875 -48.4375 58.1875 -51.625 56.5625 C-53.42055214 55.04625597 -55.21259195 53.52583614 -57 52 C-59.57276325 50.08691964 -61.28719056 49.54753536 -64.4375 49.1875 C-64.4375 48.8575 -64.4375 48.5275 -64.4375 48.1875 C-63.73367187 48.10113281 -63.02984375 48.01476562 -62.3046875 47.92578125 C-49.29241427 46.07416535 -38.11895289 41.86591815 -27.4375 34.1875 C-26.40625 33.465625 -25.375 32.74375 -24.3125 32 C-16.76796712 25.35206378 -11.52401293 16.24540071 -7.4375 7.1875 C-4.01436005 0.21896509 -4.01436005 0.21896509 0 0 Z " fill="#606EC5" transform="translate(157.4375,111.8125)" data-index="6" style="visibility: visible; opacity: 1;"></path>
<path d="M0 0 C1.98244892 0.78341119 3.96088859 1.57697486 5.9375 2.375 C7.59072266 3.03628906 7.59072266 3.03628906 9.27734375 3.7109375 C12 5 12 5 13 7 C12.18208984 7.58394531 12.18208984 7.58394531 11.34765625 8.1796875 C1.50433761 15.4822521 -5.16262799 23.28180654 -10.26196289 34.37866211 C-12.10482518 38.38096708 -14.06449217 41.64976259 -17 45 C-22.75 44.25 -22.75 44.25 -25 42 C-25.65375584 35.50461943 -24.3160087 31.38862159 -21.1875 25.75 C-20.59050293 24.64736816 -20.59050293 24.64736816 -19.98144531 23.52246094 C-15.93437222 16.36129459 -10.87108847 10.72875905 -5 5 C-4.06671875 4.06671875 -3.1334375 3.1334375 -2.171875 2.171875 C-1.45515625 1.45515625 -0.7384375 0.7384375 0 0 Z " fill="#606EC5" transform="translate(39,32)" data-index="7" style="visibility: visible;"></path>
<path d="M0 0 C-0.99 2.97 -1.98 5.94 -3 9 C-5.97 9 -8.94 9 -12 9 C-11.95547581 11.32891902 -11.95547581 11.32891902 -11 14 C-9.03814584 15.71140469 -7.03697617 17.37873325 -5 19 C-2.62012092 22.73314366 -2.80645464 25.5421398 -3.3828125 29.80859375 C-4.3355405 33.19138116 -6.28678974 34.88237248 -9 37 C-12.11888678 38.55944339 -14.5454145 38.28316275 -18 38 C-20.53937969 36.87302723 -22.66021098 35.52802548 -25 34 C-24.67 31.69 -24.34 29.38 -24 27 C-23.278125 27.33 -22.55625 27.66 -21.8125 28 C-18.98302573 29.00603529 -16.97104534 29.16977402 -14 29 C-14.23516258 25.11981748 -15.42562139 23.41169629 -18.0625 20.75 C-20.50964826 18.02436271 -21.51836832 16.18106562 -21.75 12.5 C-21.43841745 8.05424896 -19.73286039 5.49279298 -16.63671875 2.375 C-12.20793388 -1.34560208 -5.34673316 -2.67336658 0 0 Z " fill="#96C04B" transform="translate(90,80)" data-index="8" style="visibility: visible; opacity: 1;"></path>
<path d="M0 0 C2.31 0.33 4.62 0.66 7 1 C7 1.66 7 2.32 7 3 C8.32 3 9.64 3 11 3 C11 3.66 11 4.32 11 5 C10.34 5 9.68 5 9 5 C9.33 7.31 9.66 9.62 10 12 C3.71105679 13.96939767 -2.54945018 15.64746536 -9 17 C-7.35522435 11.24328521 -5.30532917 6.57181535 -0.25 3.125 C0.86375 2.568125 0.86375 2.568125 2 2 C1.34 1.34 0.68 0.68 0 0 Z " fill="#F6F9F1" transform="translate(82,53)" data-index="9" style="visibility: visible;"></path>
<path d="M0 0 C0.8971875 0.309375 0.8971875 0.309375 1.8125 0.625 C1.02875 1.49125 0.245 2.3575 -0.5625 3.25 C-3.02136728 6.17556447 -4.21200104 8.90036762 -5.1875 12.625 C-7.1675 12.955 -9.1475 13.285 -11.1875 13.625 C-9.73163231 8.52946309 -6.71465343 -1.15108345 0 0 Z " fill="#94BF46" transform="translate(84.1875,56.375)" data-index="10" style="visibility: visible;"></path>
<path d="M0 0 C-0.7425 0.5775 -1.485 1.155 -2.25 1.75 C-6.95195352 5.59705288 -9.57030248 8.73559244 -11.97265625 14.29296875 C-13 16 -13 16 -16 17 C-14.96674187 8.47562041 -9.40895836 -1.09406493 0 0 Z " fill="#F7FAF2" transform="translate(86,54)" data-index="11" style="visibility: visible;"></path>
<path d="M0 0 C0 2.31 0 4.62 0 7 C-2.31 7.66 -4.62 8.32 -7 9 C-4.4 0 -4.4 0 0 0 Z " fill="#96C049" transform="translate(89,59)" data-index="12" style="visibility: visible;"></path>
<path d="M0 0 C0.99 0.33 1.98 0.66 3 1 C3.33 1.99 3.66 2.98 4 4 C3.34 4 2.68 4 2 4 C2 4.99 2 5.98 2 7 C1.01 7.33 0.02 7.66 -1 8 C-1.33 5.69 -1.66 3.38 -2 1 C-1.34 0.67 -0.68 0.34 0 0 Z " fill="#C3DB98" transform="translate(93,57)" data-index="13" style="visibility: visible;"></path>
<path d="M0 0 C2.0625 0.4375 2.0625 0.4375 4 1 C0.38671875 5.6875 0.38671875 5.6875 -1 7 C-4 7 -4 7 -6 6 C-4 4 -2 2 0 0 Z " fill="#9EC558" transform="translate(82,56)" data-index="14" style="visibility: visible;"></path>
</svg>