<?xml version="1.0" encoding="UTF-8"?>
<svg version="1.1" xmlns="http://www.w3.org/2000/svg" width="48" height="48">
<path d="M0 0 C15.84 0 31.68 0 48 0 C48 15.84 48 31.68 48 48 C32.16 48 16.32 48 0 48 C0 32.16 0 16.32 0 0 Z " fill="#E6ED11" transform="translate(0,0)"/>
<path d="M0 0 C1.32 0.66 2.64 1.32 4 2 C4 5 4 5 2.50390625 6.71875 C1.86324219 7.3065625 1.22257812 7.894375 0.5625 8.5 C-1.92139791 10.78819687 -2.90880131 11.72640392 -4 15 C-3.40832031 14.77183594 -2.81664062 14.54367188 -2.20703125 14.30859375 C5.64147627 11.45342707 5.64147627 11.45342707 10 13 C10 14.65 10 16.3 10 18 C4.39 18 -1.22 18 -7 18 C-8.20600527 13.17597891 -6.96966839 11.35302587 -4.625 7.3125 C-4.13 6.42208008 -4.13 6.42208008 -3.625 5.51367188 C-1.21142451 1.21142451 -1.21142451 1.21142451 0 0 Z " fill="#202102" transform="translate(34,8)"/>
<path d="M0 0 C5.47932789 1.54545146 10.11429181 4.15543212 15 7 C15 8.32 15 9.64 15 11 C14.01 11.66 13.02 12.32 12 13 C11.54109375 12.51789062 11.0821875 12.03578125 10.609375 11.5390625 C9.99578125 10.90742187 9.3821875 10.27578125 8.75 9.625 C8.14671875 8.99851562 7.5434375 8.37203125 6.921875 7.7265625 C5.0299412 6.02689839 3.31798691 5.01540134 1 4 C1.22816406 4.59167969 1.45632812 5.18335938 1.69140625 5.79296875 C4.54657293 13.64147627 4.54657293 13.64147627 3 18 C1.35 18 -0.3 18 -2 18 C-2.05382106 15.37472811 -2.09358313 12.75055287 -2.125 10.125 C-2.14175781 9.37863281 -2.15851562 8.63226563 -2.17578125 7.86328125 C-2.1933959 5.90805539 -2.10320189 3.95257979 -2 2 C-1.34 1.34 -0.68 0.68 0 0 Z " fill="#191A01" transform="translate(24,26)"/>
<path d="M0 0 C5.28 0 10.56 0 16 0 C16.66 1.32 17.32 2.64 18 4 C16.98613427 6.4546223 15.97276745 8.49546254 14.625 10.75 C14.28210937 11.35199219 13.93921875 11.95398438 13.5859375 12.57421875 C12.73822182 14.05772119 11.87094495 15.53001487 11 17 C9.68 17 8.36 17 7 17 C6.34 16.01 5.68 15.02 5 14 C5.56589844 13.44570313 6.13179687 12.89140625 6.71484375 12.3203125 C7.44832031 11.59585938 8.18179687 10.87140625 8.9375 10.125 C9.66839844 9.40570313 10.39929688 8.68640625 11.15234375 7.9453125 C13.05667999 6.12972808 13.05667999 6.12972808 14 4 C13.32453125 4.144375 12.6490625 4.28875 11.953125 4.4375 C11.06109375 4.623125 10.1690625 4.80875 9.25 5 C7.92742188 5.2784375 7.92742188 5.2784375 6.578125 5.5625 C4 6 4 6 0 6 C0 4.02 0 2.04 0 0 Z " fill="#1F1F02" transform="translate(4,22)"/>
<path d="M0 0 C1.98 0 3.96 0 6 0 C6 5.28 6 10.56 6 16 C4.02 16.99 4.02 16.99 2 18 C-0.4546223 16.98613427 -2.49546254 15.97276745 -4.75 14.625 C-5.35199219 14.28210937 -5.95398438 13.93921875 -6.57421875 13.5859375 C-8.05772119 12.73822182 -9.53001487 11.87094495 -11 11 C-11 9.68 -11 8.36 -11 7 C-10.01 6.34 -9.02 5.68 -8 5 C-7.30132812 5.71027344 -6.60265625 6.42054687 -5.8828125 7.15234375 C-4.51769531 8.53099609 -4.51769531 8.53099609 -3.125 9.9375 C-2.22007813 10.85402344 -1.31515625 11.77054688 -0.3828125 12.71484375 C1.77682255 15.01187627 1.77682255 15.01187627 4 16 C3.71125 15.18015625 3.4225 14.3603125 3.125 13.515625 C2.75375 12.43796875 2.3825 11.3603125 2 10.25 C1.62875 9.18265625 1.2575 8.1153125 0.875 7.015625 C0 4 0 4 0 0 Z " fill="#101101" transform="translate(20,4)"/>
<path d="M0 0 C0.33 0 0.66 0 1 0 C1.1963696 2.37456165 1.38231294 4.74920019 1.5625 7.125 C1.61857422 7.79015625 1.67464844 8.4553125 1.73242188 9.140625 C2.04898364 13.44586499 1.7284638 16.62921718 1 21 C6.28 21 11.56 21 17 21 C17 21.33 17 21.66 17 22 C14.58373582 22.19534474 12.16734771 22.38153404 9.75 22.5625 C9.06808594 22.61857422 8.38617188 22.67464844 7.68359375 22.73242188 C4.21619301 22.98490251 1.33525245 22.98241347 -2 22 C-3.99616554 23.99616554 -3.40983427 27.81701963 -3.5625 30.5625 C-3.60568359 31.27341797 -3.64886719 31.98433594 -3.69335938 32.71679688 C-3.79971777 34.47761912 -3.90038846 36.2387832 -4 38 C-4.33 38 -4.66 38 -5 38 C-5.33 34.7 -5.66 31.4 -6 28 C-6.66 28.33 -7.32 28.66 -8 29 C-7.690625 28.0925 -7.38125 27.185 -7.0625 26.25 C-5.86747666 22.66573698 -5.86747666 22.66573698 -5 19 C-6.99616554 17.00383446 -10.81701963 17.59016573 -13.5625 17.4375 C-14.62887695 17.37272461 -14.62887695 17.37272461 -15.71679688 17.30664062 C-17.47761912 17.20028223 -19.2387832 17.09961154 -21 17 C-21 16.67 -21 16.34 -21 16 C-18.58373582 15.80465526 -16.16734771 15.61846596 -13.75 15.4375 C-13.06808594 15.38142578 -12.38617188 15.32535156 -11.68359375 15.26757812 C-8.21619301 15.01509749 -5.33525245 15.01758653 -2 16 C-0.00383446 14.00383446 -0.59016573 10.18298037 -0.4375 7.4375 C-0.39431641 6.72658203 -0.35113281 6.01566406 -0.30664062 5.28320312 C-0.20028223 3.52238088 -0.09961154 1.7612168 0 0 Z " fill="#D3DA10" transform="translate(26,5)"/>
<path d="M0 0 C1.98 0 3.96 0 6 0 C6 5.28 6 10.56 6 16 C5.34 16 4.68 16 4 16 C3.32586789 14.08594633 2.6609668 12.16863974 2 10.25 C1.62875 9.18265625 1.2575 8.1153125 0.875 7.015625 C0 4 0 4 0 0 Z " fill="#1D1E02" transform="translate(20,4)"/>
<path d="M0 0 C1.32 0.66 2.64 1.32 4 2 C4 5 4 5 2.46875 6.82421875 C1.8190625 7.43910156 1.169375 8.05398437 0.5 8.6875 C-0.1496875 9.31011719 -0.799375 9.93273438 -1.46875 10.57421875 C-1.9740625 11.04472656 -2.479375 11.51523437 -3 12 C-3.66 11.67 -4.32 11.34 -5 11 C-4.46884894 6.48521602 -2.63379708 3.65333143 0 0 Z " fill="#101001" transform="translate(34,8)"/>
<path d="M0 0 C0.75 1.625 0.75 1.625 1 4 C-0.9375 7.25 -0.9375 7.25 -3 10 C-3.99 9.67 -4.98 9.34 -6 9 C-5.52797514 4.75177626 -3.03344482 2.80010291 0 0 Z " fill="#0A0B00" transform="translate(17,30)"/>
</svg>
